<svg width="14" height="13" viewBox="0 0 14 13" fill="none" xmlns="http://www.w3.org/2000/svg">
<path d="M7.0625 8.76562C7.0625 8.83438 7.11562 8.89062 7.17969 8.89062H10.0703C10.1344 8.89062 10.1875 8.83438 10.1875 8.76562V8.01562C10.1875 7.94688 10.1344 7.89062 10.0703 7.89062H7.17969C7.11562 7.89062 7.0625 7.94688 7.0625 8.01562V8.76562ZM4.01719 8.86094L7.01719 6.34531C7.07656 6.29531 7.07656 6.20312 7.01719 6.15312L4.01719 3.63906C3.99908 3.62366 3.97693 3.61378 3.95337 3.61059C3.92981 3.60741 3.90583 3.61105 3.88428 3.62108C3.86273 3.63112 3.84451 3.64713 3.83179 3.66721C3.81906 3.68729 3.81237 3.7106 3.8125 3.73438V4.71406C3.8125 4.75156 3.82812 4.78594 3.85781 4.80937L5.57344 6.25L3.85781 7.69063C3.84385 7.70232 3.83257 7.71688 3.82475 7.73333C3.81693 7.74978 3.81275 7.76773 3.8125 7.78594V8.76562C3.8125 8.87187 3.93594 8.92969 4.01719 8.86094ZM12.75 0H1.25C0.973437 0 0.75 0.223437 0.75 0.5V12C0.75 12.2766 0.973437 12.5 1.25 12.5H12.75C13.0266 12.5 13.25 12.2766 13.25 12V0.5C13.25 0.223437 13.0266 0 12.75 0ZM12.125 11.375H1.875V1.125H12.125V11.375Z" fill="#00F0E0"/>
</svg>
